<svg width="13" height="13" viewBox="0 0 13 13" fill="none" xmlns="http://www.w3.org/2000/svg">
<path d="M12.2711 9C11.634 11.0286 9.73882 12.5 7.5 12.5H5.5C2.99348 12.5 0.917738 10.6556 0.555875 8.25M12.2711 9C12.4198 8.52648 12.5 8.0226 12.5 7.5V5.5C12.5 2.73858 10.2614 0.5 7.5 0.5H5.5C2.73858 0.5 0.5 2.73858 0.5 5.5V7.5C0.5 7.75491 0.519075 8.00535 0.555875 8.25M12.2711 9L8 6L5 8.25L3 6.5L0.555875 8.25M5 4.5C4.44772 4.5 4 4.05228 4 3.5C4 2.94772 4.44772 2.5 5 2.5C5.55228 2.5 6 2.94772 6 3.5C6 4.05228 5.55228 4.5 5 4.5Z" stroke="black"/>
</svg>
