<svg width="13" height="13" viewBox="0 0 13 13" fill="none" xmlns="http://www.w3.org/2000/svg">
<path d="M3.5 7.5C3.83333 8.16667 4.9 9.5 6.5 9.5C8.1 9.5 9.16667 8.16667 9.5 7.5M7.5 7V5.5M5.5 7V4.5M8.84142 0.841421L12.1586 4.15858C12.2846 4.28457 12.1953 4.5 12.0172 4.5H9.5C8.94771 4.5 8.5 4.05228 8.5 3.5V0.982843C8.5 0.804662 8.71543 0.715428 8.84142 0.841421ZM6 0.5H3.5C1.84315 0.5 0.5 1.84315 0.5 3.5V9.5C0.5 11.1569 1.84315 12.5 3.5 12.5H9.5C11.1569 12.5 12.5 11.1569 12.5 9.5V7C12.5 6.44772 12.0523 6 11.5 6H9C7.89543 6 7 5.10457 7 4V1.5C7 0.947715 6.55228 0.5 6 0.5Z" stroke="black"/>
</svg>
